<?xml version="1.0" standalone="no"?><svg xmlns="http://www.w3.org/2000/svg" viewBox="0 0 1440 320"><path fill="#C3073F" fill-opacity="1" d="M0,32L40,69.3C80,107,160,181,240,218.7C320,256,400,256,480,234.7C560,213,640,171,720,176C800,181,880,235,960,229.3C1040,224,1120,160,1200,149.3C1280,139,1360,181,1400,202.7L1440,224L1440,320L1400,320C1360,320,1280,320,1200,320C1120,320,1040,320,960,320C880,320,800,320,720,320C640,320,560,320,480,320C400,320,320,320,240,320C160,320,80,320,40,320L0,320Z"></path></svg>