<?xml version="1.0" standalone="no"?><svg xmlns="http://www.w3.org/2000/svg" viewBox="0 0 1440 320"><path fill="#C3073F" fill-opacity="1" d="M0,224L34.3,208C68.6,192,137,160,206,128C274.3,96,343,64,411,48C480,32,549,32,617,58.7C685.7,85,754,139,823,176C891.4,213,960,235,1029,250.7C1097.1,267,1166,277,1234,277.3C1302.9,277,1371,267,1406,261.3L1440,256L1440,0L1405.7,0C1371.4,0,1303,0,1234,0C1165.7,0,1097,0,1029,0C960,0,891,0,823,0C754.3,0,686,0,617,0C548.6,0,480,0,411,0C342.9,0,274,0,206,0C137.1,0,69,0,34,0L0,0Z"></path></svg>